<?xml version="1.0" encoding="UTF-8"?>
<svg width="200" height="200" viewBox="0 0 200 200" fill="none" xmlns="http://www.w3.org/2000/svg">
  <!-- Cara frontal -->
  <path d="M50 75L100 100L150 75L100 50L50 75Z" fill="#1A73E8" fill-opacity="0.2" stroke="#1A73E8" stroke-width="2"/>
  
  <!-- Cara derecha -->
  <path d="M100 100L150 75L150 125L100 150L100 100Z" fill="#1A73E8" fill-opacity="0.1" stroke="#1A73E8" stroke-width="2"/>
  
  <!-- Cara izquierda -->
  <path d="M50 75L100 100L100 150L50 125L50 75Z" fill="#1A73E8" fill-opacity="0.15" stroke="#1A73E8" stroke-width="2"/>
  
  <!-- Efectos de brillo -->
  <circle cx="100" cy="100" r="2" fill="white"/>
  <circle cx="150" cy="75" r="2" fill="white"/>
  <circle cx="50" cy="75" r="2" fill="white"/>
  <circle cx="100" cy="50" r="2" fill="white"/>
  <circle cx="100" cy="150" r="2" fill="white"/>
  <circle cx="150" cy="125" r="2" fill="white"/>
  <circle cx="50" cy="125" r="2" fill="white"/>
  
  <!-- Líneas de conexión -->
  <line x1="100" y1="100" x2="150" y2="75" stroke="#1A73E8" stroke-width="1" stroke-opacity="0.5"/>
  <line x1="100" y1="100" x2="50" y2="75" stroke="#1A73E8" stroke-width="1" stroke-opacity="0.5"/>
  <line x1="100" y1="100" x2="100" y2="150" stroke="#1A73E8" stroke-width="1" stroke-opacity="0.5"/>
  
  <!-- Efecto de brillo general -->
  <defs>
    <filter id="glow" x="-50%" y="-50%" width="200%" height="200%">
      <feGaussianBlur stdDeviation="4" result="coloredBlur"/>
      <feMerge>
        <feMergeNode in="coloredBlur"/>
        <feMergeNode in="SourceGraphic"/>
      </feMerge>
    </filter>
  </defs>
  
  <g filter="url(#glow)">
    <path d="M50 75L100 100L150 75L100 50L50 75Z" stroke="#1A73E8" stroke-width="0.5"/>
  </g>
</svg> 